<?xml version="1.0" encoding="UTF-8" standalone="no"?>
<svg xmlns="http://www.w3.org/2000/svg" width="512" height="512" viewBox="0 0 512 512" fill="none">
  <!-- 背景圆形 -->
  <circle cx="256" cy="256" r="256" fill="#3E7BFA"/>
  
  <!-- 大脑形状 -->
  <g filter="url(#filter0_d)">
    <path d="M256 120C200 120 145 150 145 220C145 290 175 320 175 350C175 380 215 400 256 400C297 400 337 380 337 350C337 320 367 290 367 220C367 150 312 120 256 120Z" fill="url(#paint0_radial)"/>
  </g>
  
  <!-- 电路线 -->
  <path d="M175 270L230 290L256 320L282 290L337 270" stroke="white" stroke-width="6" stroke-linecap="round"/>
  <path d="M175 230L230 210L255 180L280 210L337 230" stroke="white" stroke-width="6" stroke-linecap="round"/>
  <path d="M210 150L256 180L302 150" stroke="white" stroke-width="6" stroke-linecap="round"/>
  <path d="M210 350L256 320L302 350" stroke="white" stroke-width="6" stroke-linecap="round"/>
  
  <!-- 亮点 -->
  <circle cx="210" cy="210" r="6" fill="white"/>
  <circle cx="302" cy="210" r="6" fill="white"/>
  <circle cx="256" cy="180" r="6" fill="white"/>
  <circle cx="256" cy="320" r="6" fill="white"/>
  <circle cx="210" cy="290" r="6" fill="white"/>
  <circle cx="302" cy="290" r="6" fill="white"/>
  
  <!-- 滤镜定义 -->
  <defs>
    <filter id="filter0_d" x="135" y="110" width="242" height="300" filterUnits="userSpaceOnUse" color-interpolation-filters="sRGB">
      <feFlood flood-opacity="0" result="BackgroundImageFix"/>
      <feColorMatrix in="SourceAlpha" type="matrix" values="0 0 0 0 0 0 0 0 0 0 0 0 0 0 0 0 0 0 127 0"/>
      <feOffset/>
      <feGaussianBlur stdDeviation="5"/>
      <feColorMatrix type="matrix" values="0 0 0 0 1 0 0 0 0 1 0 0 0 0 1 0 0 0 1 0"/>
      <feBlend mode="normal" in2="BackgroundImageFix" result="effect1_dropShadow"/>
      <feBlend mode="normal" in="SourceGraphic" in2="effect1_dropShadow" result="shape"/>
    </filter>
    <radialGradient id="paint0_radial" cx="0" cy="0" r="1" gradientUnits="userSpaceOnUse" gradientTransform="translate(256 260) rotate(90) scale(140 111)">
      <stop offset="0" stop-color="white"/>
      <stop offset="1" stop-color="#E0E7FF"/>
    </radialGradient>
  </defs>
</svg> 